<?xml version="1.0" standalone="no"?><!DOCTYPE svg PUBLIC "-//W3C//DTD SVG 1.1//EN" "http://www.w3.org/Graphics/SVG/1.1/DTD/svg11.dtd"><svg t="1722253253793" class="icon" viewBox="0 0 1024 1024" version="1.1" xmlns="http://www.w3.org/2000/svg" p-id="4255" xmlns:xlink="http://www.w3.org/1999/xlink" width="200" height="200"><path d="M20.48 0.6144m245.76 0l491.52 0q245.76 0 245.76 245.76l0 491.52q0 245.76-245.76 245.76l-491.52 0q-245.76 0-245.76-245.76l0-491.52q0-245.76 245.76-245.76Z" fill="#D83B01" p-id="4256"></path><path d="M568.9344 606.208c46.03904-36.2496 51.07712-38.01088 64.7168-20.8896 11.8784 14.70464 9.33888 17.36704-69.87776 86.4256-26.4192 23.26528-48.5376 47.43168-48.5376 54.35392 0 6.06208-6.84032 11.22304-14.49984 11.22304-7.61856 0-35.75808 14.7456-62.09536 33.75104-52.0192 37.15072-147.37408 78.6432-180.6336 78.6432-54.43584 0-51.07712-54.43584 4.3008-69.91872 94.57664-25.96864 191.6928-81.18272 306.5856-173.58848z m-35.67616-152.82176c11.0592-4.38272 29.77792-6.10304 41.7792-4.25984 11.83744 0.8192 39.1168 4.3008 61.2352 6.88128 97.8944 11.30496 171.13088 101.08928 163.51232 197.8368-4.21888 53.4528-18.71872 81.1008-62.13632 120.832-68.1984 62.09536-163.59424 92.32384-195.91168 62.99648-21.2992-19.90656-38.2976-62.2592-31.49824-78.6432 4.25984-12.12416 7.70048-12.12416 31.5392 0.86016 53.61664 27.648 130.2528-1.72032 174.53056-66.47808 44.31872-65.65888 25.51808-137.33888-35.75808-137.33888-22.1184 0-30.63808-5.16096-39.1168-24.1664-16.26112-33.62816-48.57856-35.34848-85.1968-3.39968-170.31168 149.34016-328.74496 230.52288-364.50304 187.35104-22.9376-27.60704-5.12-41.41056 89.41568-69.05856 32.3584-9.58464 86.016-37.96992 145.6128-78.6432 85.15584-56.9344 94.49472-65.536 91.17696-85.4016-3.44064-16.384 0-23.3472 15.31904-29.36832zM387.60448 140.82048c45.99808-9.50272 195.7888-7.7824 234.16832 2.53952 72.41728 19.0464 84.29568 31.9488 105.6768 121.89696 12.6976 53.53472 11.8784 77.66016-3.4816 114.81088-16.9984 42.35264-49.39776 52.6336-153.27232 51.77344-83.51744-0.8192-85.1968 0-99.65568 22.44608-17.94048 29.2864-90.35776 87.20384-122.6752 99.328-97.8944 35.30752-152.41216 38.78912-160.9728 11.14112-8.43776-26.78784 10.24-43.17184 50.29888-43.17184 50.176 0 132.83328-33.71008 156.672-63.0784 9.29792-10.32192 3.35872-12.98432-36.6592-16.384-53.6576-4.25984-72.37632-21.58592-82.5344-75.9808-9.4208-46.61248-7.70048-128.6144 1.6384-147.6608 10.32192-18.10432 38.37952-22.44608 47.75936-6.92224 3.44064 6.06208 5.98016 37.96992 6.79936 72.58112 1.72032 94.98624 6.84032 99.328 131.19488 94.98624 55.37792-1.80224 115.79392-3.4816 136.23296-4.38272 54.4768 0 73.23648-23.30624 66.43712-83.72224-5.98016-54.35392-17.94048-76.8-47.7184-88.064-26.33728-11.264-176.29184-14.70464-235.88864-5.24288-44.2368 6.10304-45.09696 6.10304-45.09696-15.52384 0-25.8048 9.33888-32.768 51.07712-41.3696zM385.8432 268.57472c5.98016-6.92224 38.37952-10.32192 101.33504-9.54368 120.91392 0.90112 114.8928-0.86016 111.57504 26.78784l-2.53952 23.30624-106.496 0.8192c-95.35488 0-106.496-1.6384-109.03552-15.52384a37.6832 37.6832 0 0 1 5.16096-25.8048v-0.04096z" fill="#FFFFFF" p-id="4257"></path></svg>